<svg width="24" height="24" viewBox="0 0 24 24" fill="none" xmlns="http://www.w3.org/2000/svg">
  <path
    d="M20.3784 3.62132C21.2069 4.44975 21.2069 5.79289 20.3784 6.62132L15.0609 11.9393L12.0607 8.9391L17.3784 3.62132C18.2069 2.79289 19.55 2.79289 20.3784 3.62132Z"
    fill="inherit" />
  <path
    d="M7.87844 15.2426C7.5324 14.8966 7.28857 14.4871 7.14694 14.0515C6.4333 14.1226 5.63299 14.367 4.99992 15C3.91623 16.0837 3.85559 17.1613 3.79501 18.2378C3.7432 19.1584 3.69144 20.0781 3 21C6 21 7.74992 20.7502 9.25 19.25C9.91304 18.587 10.1009 17.6916 10.104 16.8988C9.61062 16.7675 9.14415 16.5084 8.75712 16.1213L7.87844 15.2426Z"
    fill="inherit" />
  <path
    d="M9.81778 15.0607L8.9391 14.182C8.35331 13.5962 8.35331 12.6464 8.9391 12.0607L11 9.99976L14.0002 13L11.9391 15.0607C11.3533 15.6464 10.4036 15.6464 9.81778 15.0607Z"
    fill="inherit" />
</svg>