<svg width="24" height="24" viewBox="0 0 24 24" fill="none" xmlns="http://www.w3.org/2000/svg">
  <path fill-rule="evenodd" clip-rule="evenodd"
    d="M12 2C8.13401 2 5 5.13401 5 9C5 10.7626 5.65144 12.373 6.72669 13.6037C7.4259 14.4039 8.06658 15.3087 8.34856 16.3077C8.38014 16.4196 8.48034 16.5 8.5966 16.5H15.4034C15.5197 16.5 15.6199 16.4196 15.6514 16.3077C15.9334 15.3087 16.5741 14.4039 17.2733 13.6037C18.3486 12.373 19 10.7626 19 9C19 5.13401 15.866 2 12 2ZM12 6C10.3431 6 9 7.34315 9 9C9 9.55228 8.55228 10 8 10C7.44772 10 7 9.55228 7 9C7 6.23858 9.23858 4 12 4C12.5523 4 13 4.44772 13 5C13 5.55228 12.5523 6 12 6Z"
    fill="inherit" />
  <path
    d="M15.25 18.3706C15.3881 18.3706 15.5 18.4825 15.5 18.6206V18.9999C15.5 20.6568 14.1569 21.9999 12.5 21.9999H11.5C9.84315 21.9999 8.5 20.6568 8.5 18.9999V18.6206C8.5 18.4825 8.61193 18.3706 8.75 18.3706H15.25Z"
    fill="inherit" />
</svg>