<svg viewBox="0 0 66 38" fill="none" xmlns="http://www.w3.org/2000/svg">
  <path
    d="M35.1262 1.53507C35.9986 0.620718 37.1833 0.10704 38.4169 0.10704C43.9671 0.10704 49.1976 0.107043 54.3485 0.107054C64.7085 0.107076 69.8963 13.2363 62.5707 20.9148L46.6138 37.6406C45.8813 38.4085 44.6287 37.8646 44.6287 36.7787V22.0472L46.4728 20.1143C47.9379 18.5786 46.9003 15.9527 44.8282 15.9527H21.3715L35.1262 1.53507Z"
    fill="inherit" />
  <path
    d="M30.8738 36.465C30.0015 37.3794 28.8168 37.893 27.5832 37.893C22.033 37.893 16.8025 37.893 11.6515 37.893C1.29155 37.8929 -3.89623 24.7638 3.42937 17.0852L19.3863 0.359451C20.1188 -0.408412 21.3714 0.13542 21.3714 1.22134L21.3715 15.9527L19.5273 17.8857C18.0622 19.4215 19.0998 22.0473 21.1719 22.0473L44.6287 22.0472L30.8738 36.465Z"
    fill="inherit" />

</svg>