<svg width="24" height="24" viewBox="0 0 24 24" fill="none" xmlns="http://www.w3.org/2000/svg">
  <path
    d="M7.5 4C7.5 3.44772 7.05228 3 6.5 3C5.94772 3 5.5 3.44772 5.5 4V5.5H4C3.44772 5.5 3 5.94772 3 6.5C3 7.05228 3.44772 7.5 4 7.5H5.5V9C5.5 9.55228 5.94772 10 6.5 10C7.05228 10 7.5 9.55228 7.5 9V7.5H9C9.55228 7.5 10 7.05228 10 6.5C10 5.94772 9.55228 5.5 9 5.5H7.5V4Z"
    fill="inherit" />
  <path
    d="M13.4099 5.28155C13.2656 4.90615 12.7344 4.90615 12.5901 5.28155L10.63 10.3777C10.5854 10.4937 10.4937 10.5854 10.3777 10.63L5.28155 12.5901C4.90615 12.7344 4.90615 13.2656 5.28155 13.4099L10.3777 15.37C10.4937 15.4146 10.5854 15.5063 10.63 15.6223L12.5901 20.7185C12.7344 21.0938 13.2656 21.0938 13.4099 20.7185L15.37 15.6223C15.4146 15.5063 15.5063 15.4146 15.6223 15.37L20.7185 13.4099C21.0938 13.2656 21.0938 12.7344 20.7185 12.5901L15.6223 10.63C15.5063 10.5854 15.4146 10.4937 15.37 10.3777L13.4099 5.28155Z"
    fill="inherit" />
</svg>