<svg width="24" height="24" viewBox="0 0 24 24" fill="none" xmlns="http://www.w3.org/2000/svg">
  <path
    d="M8.75 7C8.88807 7 8.99679 6.88633 9.03086 6.75253C9.14099 6.31994 9.53313 6 10 6H14C14.4669 6 14.859 6.31994 14.9691 6.75253C15.0032 6.88633 15.1119 7 15.25 7H16.75C16.8881 7 17.0011 6.88768 16.9897 6.75008C16.8627 5.21016 15.5727 4 14 4H10C8.42731 4 7.13726 5.21016 7.01026 6.75008C6.99891 6.88768 7.11193 7 7.25 7H8.75Z"
    fill="inherit" />
  <path
    d="M2.25 11C2.11193 11 1.99891 10.8877 2.01026 10.7501C2.13047 9.29257 3.29257 8.13047 4.75008 8.01026C4.88768 7.99891 5 8.11193 5 8.25V9C5 10.1046 4.10457 11 3 11H2.25Z"
    fill="inherit" />
  <path
    d="M2.5 15C2.22386 15 2 14.7761 2 14.5V13.5C2 13.2239 2.22386 13 2.5 13H3C5.20914 13 7 11.2091 7 9V8.5C7 8.22386 7.22386 8 7.5 8H16.5C16.7761 8 17 8.22386 17 8.5V9C17 11.2091 18.7909 13 21 13H21.5C21.7761 13 22 13.2239 22 13.5V14.5C22 14.7761 21.7761 15 21.5 15H21C18.7909 15 17 16.7909 17 19V19.5C17 19.7761 16.7761 20 16.5 20H7.5C7.22386 20 7 19.7761 7 19.5V19C7 16.7909 5.20914 15 3 15H2.5Z"
    fill="inherit" />
  <path
    d="M19 9V8.25C19 8.11193 19.1123 7.99891 19.2499 8.01026C20.7074 8.13047 21.8695 9.29257 21.9897 10.7501C22.0011 10.8877 21.8881 11 21.75 11H21C19.8954 11 19 10.1046 19 9Z"
    fill="inherit" />
  <path
    d="M21 17H21.75C21.8881 17 22.0011 17.1123 21.9897 17.2499C21.8695 18.7074 20.7074 19.8695 19.2499 19.9897C19.1123 20.0011 19 19.8881 19 19.75V19C19 17.8954 19.8954 17 21 17Z"
    fill="inherit" />
  <path
    d="M5 19V19.75C5 19.8881 4.88768 20.0011 4.75008 19.9897C3.29257 19.8695 2.13047 18.7074 2.01026 17.2499C1.99891 17.1123 2.11193 17 2.25 17H3C4.10457 17 5 17.8954 5 19Z"
    fill="inherit" />
</svg>