<svg width="24" height="24" viewBox="0 0 24 24" fill="none" xmlns="http://www.w3.org/2000/svg">
  <path fill-rule="evenodd" clip-rule="evenodd"
    d="M18 3H6C4.34315 3 3 4.34315 3 6V7.5C3 7.77614 3.22386 8 3.5 8H20.5C20.7761 8 21 7.77614 21 7.5V6C21 4.34315 19.6569 3 18 3ZM5 5.5C5 4.94772 5.44772 4.5 6 4.5H6.01C6.56228 4.5 7.01 4.94772 7.01 5.5C7.01 6.05228 6.56228 6.5 6.01 6.5H6C5.44772 6.5 5 6.05228 5 5.5ZM8 5.5C8 4.94772 8.44772 4.5 9 4.5H9.01C9.56228 4.5 10.01 4.94772 10.01 5.5C10.01 6.05228 9.56228 6.5 9.01 6.5H9C8.44772 6.5 8 6.05228 8 5.5ZM11 5.5C11 4.94772 11.4477 4.5 12 4.5H12.01C12.5623 4.5 13.01 4.94772 13.01 5.5C13.01 6.05228 12.5623 6.5 12.01 6.5H12C11.4477 6.5 11 6.05228 11 5.5Z"
    fill="inherit" />
  <path fill-rule="evenodd" clip-rule="evenodd"
    d="M18 21C19.6569 21 21 19.6569 21 18V10C21 9.72386 20.7761 9.5 20.5 9.5H3.5C3.22386 9.5 3 9.72386 3 10V18C3 19.6569 4.34315 21 6 21H18ZM9.71354 14.6494H8C8.22019 13.0478 9.30792 11.7374 10.752 11.25C10.15 12.3202 9.80208 13.4764 9.71354 14.6494ZM10.8723 14.6494C10.9714 13.544 11.3448 12.4474 12 11.4419C12.6552 12.4474 13.0286 13.544 13.1277 14.6494H10.8723ZM12 19.0581C11.3448 18.0526 10.9714 16.956 10.8723 15.8506H13.1277C13.0286 16.956 12.6552 18.0526 12 19.0581ZM9.71354 15.8506C9.80208 17.0236 10.15 18.1798 10.752 19.25C9.30792 18.7626 8.22019 17.4522 8 15.8506H9.71354ZM14.2865 15.8506C14.1979 17.0236 13.85 18.1798 13.248 19.25C14.6921 18.7626 15.7798 17.4522 16 15.8506H14.2865ZM14.2865 14.6494H16C15.7798 13.0478 14.6921 11.7374 13.248 11.25C13.85 12.3202 14.1979 13.4764 14.2865 14.6494Z"
    fill="inherit" />
</svg>