<svg viewBox="0 0 122 38" version="1.1" id="svg1" xmlns="http://www.w3.org/2000/svg"
  xmlns:svg="http://www.w3.org/2000/svg">
  <defs id="defs1" />
  <path
    d="M 64.329939,9.5546917 A 2.4774927,2.4718548 0 1 1 61.852446,7.0828376 2.4698327,2.4642122 0 0 1 64.329939,9.5546917 Z M 54.109187,14.522422 v 0.611412 a 4.7634832,4.7526431 0 0 0 -3.686693,-1.523073 7.3000681,7.2834555 0 0 0 -7.374481,7.53348 7.3000681,7.2834555 0 0 0 7.366821,7.541122 4.631073,4.6205343 0 0 0 3.686693,-1.560195 v 0.647443 a 0.52307488,0.52188454 0 0 0 0.530735,0.529527 h 3.0903 V 13.967783 H 54.658524 A 0.54605516,0.54481252 0 0 0 54.12779,14.49731 Z m 0,9.166825 a 3.7906515,3.7820252 0 0 1 -3.0903,1.560194 c -2.440287,0 -4.306067,-1.523073 -4.306067,-4.1052 0,-2.582128 1.86578,-4.105201 4.306067,-4.105201 a 3.8935156,3.8846552 0 0 1 3.0903,1.560195 v 5.098746 z m 5.909214,-9.697444 h 3.687787 V 28.294495 H 60.018401 V 13.967783 Z M 114.69724,13.60967 a 4.7634832,4.7526431 0 0 0 -3.6867,1.523073 V 7.1057656 h -3.68779 V 28.292312 h 3.0892 a 0.54605516,0.54481252 0 0 0 0.53074,-0.529527 v -0.647443 a 4.7197113,4.7089708 0 0 0 3.67903,1.560195 7.3219541,7.3052917 0 0 0 7.37449,-7.53348 7.3153882,7.2987408 0 0 0 -7.37449,-7.533479 z m -0.62266,11.603742 a 3.7315593,3.7230675 0 0 1 -3.0903,-1.560195 v -5.099838 a 4.1364499,4.1270367 0 0 1 3.0903,-1.560195 c 2.44028,0 4.30607,1.523073 4.30607,4.105201 0,2.582127 -1.86579,4.1052 -4.30607,4.1052 z m -8.62089,-5.400086 v 8.519383 h -3.68779 v -8.093578 c 0,-2.361582 -0.73755,-3.310363 -2.823285,-3.310363 a 4.0926779,4.0833643 0 0 0 -2.949142,1.405157 v 9.961662 H 92.30569 V 13.967783 h 2.897705 a 0.54605516,0.54481252 0 0 1 0.530734,0.529527 v 0.611413 a 5.2504462,5.238498 0 0 1 3.885857,-1.523073 5.8993655,5.8859405 0 0 1 4.004044,1.368036 c 1.29783,1.066697 1.79136,2.434733 1.79136,4.833437 z M 83.458284,13.611853 A 4.7634832,4.7526431 0 0 0 79.77159,15.134926 V 7.1079486 H 76.083803 V 28.292312 h 3.090301 a 0.54605516,0.54481252 0 0 0 0.530734,-0.529527 v -0.647443 a 4.7197113,4.7089708 0 0 0 3.686693,1.560195 7.3219541,7.3052917 0 0 0 7.374481,-7.53348 7.270522,7.2539767 0 0 0 -7.374481,-7.533479 z m -0.614996,11.601559 a 3.7315593,3.7230675 0 0 1 -3.0903,-1.560195 v -5.099838 a 4.1364499,4.1270367 0 0 1 3.0903,-1.560195 c 2.440287,0 4.306066,1.523073 4.306066,4.105201 0,2.582127 -1.865779,4.1052 -4.306066,4.1052 z M 72.907054,13.607486 a 5.8479335,5.8346255 0 0 1 1.680843,0.191066 v 3.384607 c 0,0 -3.064037,-1.007739 -4.954985,1.139848 v 10.006426 h -3.687788 v -14.36165 h 3.0903 a 0.54605516,0.54481252 0 0 1 0.530735,0.529527 v 0.611413 A 5.0075118,4.9961164 0 0 1 72.884073,13.58565 Z M 34.89111,26.998519 34.315508,25.630482 33.437881,23.687063 33.400676,23.649943 A 393.87101,392.97469 0 0 0 24.97895,6.4561386 L 24.860766,6.2377776 23.952498,4.4144565 A 10.964875,10.939922 0 0 0 22.58134,2.3247354 6.15762,6.1436073 0 0 0 17.699673,2.7436165e-4 6.4005544,6.3859888 0 0 0 12.818006,2.2810624 13.148002,13.118081 0 0 0 11.44685,4.3707845 L 10.414925,6.3862636 C 7.4657906,12.096423 4.6184248,17.87209 1.9866358,23.580066 l -0.037207,0.07315 c -0.2188597,0.625606 -0.5307349,1.266498 -0.8404215,1.94997 q -0.28780064,0.625607 -0.57560119,1.368036 a 8.5683605,8.5488618 0 0 0 -0.45741695,4.105201 8.1120379,8.0935776 0 0 0 4.95498544,6.312838 7.8308031,7.8129828 0 0 0 3.0903004,0.610321 8.6569987,8.6372983 0 0 0 0.9881517,-0.07315 10.073021,10.050098 0 0 0 3.8125373,-1.294885 19.305622,19.261689 0 0 0 4.726276,-3.957807 20.027858,19.982282 0 0 0 4.726278,3.957807 10.065362,10.042456 0 0 0 3.812537,1.294885 8.6723189,8.6525836 0 0 0 0.988152,0.07315 7.706053,7.6885166 0 0 0 3.090299,-0.610321 8.1120379,8.0935776 0 0 0 4.954987,-6.312838 7.2048641,7.1884682 0 0 0 -0.346892,-4.068079 z m -17.189248,1.979449 c -2.057282,-2.58977 -3.392327,-5.017953 -3.849744,-7.078196 a 6.1499599,6.1359646 0 0 1 -0.118184,-2.317909 3.686693,3.6783033 0 0 1 0.611713,-1.596225 4.048906,4.039692 0 0 1 3.355121,-1.677018 3.9011756,3.8922978 0 0 1 3.35512,1.670468 3.686693,3.6783033 0 0 1 0.611713,1.596224 6.128074,6.1141285 0 0 1 -0.118184,2.31791 C 21.092,23.9087 19.758049,26.307404 17.699673,28.971417 Z m 15.212943,1.78729 a 5.6629969,5.6501098 0 0 1 -3.473304,4.414184 5.7735211,5.7603825 0 0 1 -2.891138,0.419254 7.4992305,7.4821647 0 0 1 -2.897704,-0.985904 17.80862,17.768094 0 0 1 -4.343272,-3.678303 c 2.514699,-3.083268 4.041246,-5.895767 4.615752,-8.40911 a 9.5860585,9.5642438 0 0 0 0.191503,-3.237213 6.187166,6.1730861 0 0 0 -1.031924,-2.58977 6.4224404,6.407825 0 0 0 -5.382856,-2.729521 6.5263987,6.5115468 0 0 0 -5.375196,2.700042 6.187166,6.1730861 0 0 0 -1.031925,2.58977 7.9194413,7.9014193 0 0 0 0.191503,3.237213 c 0.575601,2.508976 2.13826,5.362964 4.615753,8.446231 A 17.130155,17.091173 0 0 1 11.758724,34.620435 7.4992305,7.4821647 0 0 1 8.8533613,35.635818 6.0985278,6.0846496 0 0 1 5.955658,35.253685 5.6629969,5.6501098 0 0 1 2.4823532,30.839501 6.3119161,6.2975523 0 0 1 2.829246,27.897077 C 2.9474303,27.514944 3.1312724,27.161198 3.3216804,26.682986 3.5875951,26.071573 3.8972817,25.425222 4.1993083,24.77778 l 0.037206,-0.07315 C 6.8693974,19.027224 9.6861234,13.257015 12.629787,7.6210986 l 0.10943,-0.272952 0.914834,-1.7512611 a 8.3626324,8.3436018 0 0 1 1.098675,-1.684661 4.0040397,3.9949278 0 0 1 6.098528,0 8.3768582,8.3577953 0 0 1 1.039584,1.670468 l 0.914834,1.7512611 0.10943,0.218361 c 2.897703,5.6730384 5.729749,11.4476144 8.354972,17.1195594 v 0.03712 c 0.302027,0.611413 0.575601,1.294885 0.877628,1.905206 0.191502,0.456376 0.383004,0.838509 0.492434,1.214091 a 6.4377605,6.4231103 0 0 1 0.265915,2.942424 z"
    fill="#ff5a5f" fill-rule="evenodd" id="path1" style="stroke-width:1.09305" />
</svg>