<?xml version="1.0" encoding="UTF-8" standalone="no"?>
<!-- Generator: Adobe Illustrator 24.0.0, SVG Export Plug-In . SVG Version: 6.00 Build 0)  -->

<svg version="1.1" viewBox="0 0 90 38" id="Layer_1" x="0px" y="0px" viewBox="0 0 90 38" xml:space="preserve"
  xmlns="http://www.w3.org/2000/svg" xmlns:svg="http://www.w3.org/2000/svg">
  <defs id="defs5" />
  <style type="text/css" id="style1">
    .st0 {
      fill: #24BECA;
    }
  </style>
  <g id="g5" transform="matrix(0.90659002,0,0,0.91127098,-9.3999351,-5.5587529)">
    <path class="st0"
      d="m 39.2,38.1 c -1.7,2.3 -3.9,4.7 -6.8,6.5 -2.8,1.8 -6,3.2 -9.8,3.2 -3.5,0 -6.4,-1.8 -8,-3.3 C 12.2,42.2 10.9,38.9 10.5,35.8 9.4,26.2 15.3,13.6 24.4,8 26.5,6.7 28.8,6.1 31,6.1 c 4.4,0 7.7,3.1 8.1,6.9 0.4,3.4 -0.9,6.3 -4.7,8.2 -1.9,1 -2.9,0.9 -3.2,0.5 C 31,21.4 31.1,20.9 31.5,20.6 35,17.7 35.1,15.3 34.7,11.9 34.4,9.7 33,8.3 31.4,8.3 24.5,8.3 14.5,23.8 15.9,35 c 0.5,4.4 3.2,9.5 8.8,9.5 1.8,0 3.8,-0.5 5.5,-1.4 3.9,-2 5.6,-3.4 7.9,-6.6 0.3,-0.4 0.6,-0.9 0.9,-1.3 0.2,-0.4 0.6,-0.5 0.9,-0.5 0.3,0 0.7,0.3 0.7,0.8 0,0.3 -0.1,0.9 -0.5,1.4 -0.2,0.2 -0.6,0.8 -0.9,1.2 z"
      id="path1" />
    <path class="st0"
      d="m 49.7,43.8 c -1.7,0 -2.7,-0.9 -3.1,-2.3 -1.1,1.5 -2.7,2.3 -4.3,2.3 -2.7,0 -5.2,-2.3 -5.6,-5.3 -0.6,-5.3 3.9,-12.1 10.7,-12.1 2.9,0 5.3,1.2 5.6,3.5 0.4,2.9 -2.1,3.5 -3,3.5 -0.8,0 -2.1,-0.2 -2.2,-1 -0.1,-0.8 1.7,-0.3 1.5,-2.2 -0.1,-1.2 -1.3,-1.6 -2.5,-1.6 -4.2,0 -6.5,5.8 -6,9.4 0.2,1.6 1,3.2 2.5,3.2 1.2,0 3,-1.7 3.6,-4.3 0.4,-1.7 2.1,-2.9 3.3,-2.9 0.6,0 1.1,0.3 1.2,0.9 0,0.2 0,0.5 -0.1,0.9 -0.1,0.8 -0.7,3.2 -0.7,3.8 0,0.5 0.3,1.1 1.1,1.1 0.9,0 5,-2.4 7.3,-5.6 0.2,-0.3 0.6,-0.5 0.9,-0.5 0.3,0 0.7,0.2 0.7,0.6 0.1,0.4 -0.1,0.9 -0.6,1.6 -2.6,3.8 -8.3,7 -10.3,7 z"
      id="path2" />
    <path class="st0"
      d="m 107,41.8 c 0.2,1.7 1,2.8 1.7,3.4 0.3,0.2 0.4,0.5 0.4,0.7 0.1,0.5 -0.3,0.9 -0.9,0.9 -0.2,0 -0.4,0 -0.6,-0.1 -3,-1.2 -4.2,-3.2 -4.6,-5.1 -1.1,1.4 -2.7,2.3 -4.2,2.3 -2.7,0 -5.2,-2.3 -5.6,-5.3 -0.6,-5.2 4.1,-12 10.8,-12 2.8,0 5.3,1.1 5.6,3.4 0.4,2.9 -2.2,3.5 -3,3.5 -0.9,0 -2.2,-0.2 -2.3,-1 -0.1,-0.7 1.8,-0.3 1.6,-2.1 -0.1,-1.2 -1.4,-1.6 -2.5,-1.6 -3.9,0 -6.5,5.1 -6,9.3 0.2,1.7 1,3.3 2.5,3.3 1.2,0 3,-1.7 3.7,-4.3 0.4,-1.7 2.1,-2.9 3.3,-2.9 0.6,0 1.1,0.3 1.2,1 0,0.3 -0.1,1.1 -0.7,3.8 -0.5,1 -0.5,2 -0.4,2.8 z"
      id="path3" />
    <path class="st0"
      d="m 71,40.8 c 0.9,0 3.9,-1.1 6.3,-4.4 0.3,-0.3 0.6,-0.5 0.9,-0.5 0.4,0 0.7,0.2 0.8,0.6 0,0.3 -0.2,0.9 -0.7,1.6 -2.7,3.8 -7.3,5.7 -9.3,5.7 -2.1,0 -3.2,-1.3 -3.4,-3.2 -0.1,-0.6 -0.1,-1.4 0.1,-2.2 0.7,-4.3 2.3,-6.9 2.2,-7.7 0,-0.2 -0.2,-0.3 -0.3,-0.3 -1.3,0 -6,4.8 -6.7,8 l -0.6,2.5 c -0.4,1.8 -2.1,2.9 -3.3,2.9 -0.6,0 -1,-0.3 -1.1,-0.9 0,-0.2 0,-0.5 0.1,-0.9 0,0 2.3,-11.8 2.4,-12.4 0.3,-1.4 0.8,-2.8 3.6,-2.8 0.6,0 1,0.3 1.1,1 0,0.2 0,0.5 -0.1,0.9 l -0.8,3.6 c 2.5,-3.3 6.3,-5.7 8.7,-5.7 1,0 1.7,0.5 1.9,1.6 0.1,0.6 -0.1,1.6 -0.5,2.7 -0.8,2.3 -1.7,5.6 -2.4,8.5 -0.2,0.4 0,1.4 1.1,1.4 z"
      id="path4" />
    <path class="st0"
      d="m 86.8,27 c 0,1.6 0.8,3.3 1.8,4.4 0.4,-1.1 0.6,-2.2 0.6,-3.3 0,-2.1 -0.8,-3 -1.4,-3 -0.7,0 -1,1 -1,1.9 z m 3.6,8.6 c -0.3,0 -0.6,0 -1,-0.1 -2.6,3.8 -5.3,6.4 -7.4,7.5 -0.9,0.5 -1.7,0.7 -2.3,0.7 -0.5,0 -1,-0.1 -1.2,-0.5 -0.9,-1.6 -1.3,-4.7 -1.3,-8 0,-2.4 0.2,-4.4 0.6,-5.8 0.5,-1.5 2.4,-2.9 3.6,-2.9 0.6,0 1.1,0.3 1.1,1 0,0.2 -0.1,0.5 -0.2,0.8 -0.9,2.5 -1.3,4.9 -1.3,7.3 0,1.3 0.3,3.5 0.6,4.6 0.1,0.2 0.1,0.5 0.3,0.5 0.4,0 3.1,-2.7 5.1,-5.9 -1.7,-1.1 -2.7,-3.1 -2.7,-5.6 0,-4.2 2.5,-6.3 4.9,-6.3 1.9,0 3.6,1.4 3.6,4.2 0,1.7 -0.7,3.7 -1.7,5.6 0,0 0.4,0.1 0.6,0.1 1.5,0 2.7,-0.7 3.3,-1.4 0.5,-0.5 0.9,-0.9 1.3,-0.9 0.3,0 0.4,0.2 0.4,0.5 0,0.2 -0.1,0.5 -0.2,0.8 -1.4,2.3 -4,3.8 -6.1,3.8 z"
      id="path5" />
  </g>
</svg>