<svg viewBox="0 0 116 38" version="1.1" id="svg4" xmlns:xlink="http://www.w3.org/1999/xlink"
  xmlns="http://www.w3.org/2000/svg" xmlns:svg="http://www.w3.org/2000/svg">
  <path
    d="M 28.52163,13.422568 H 14.986747 v 4.01359 h 9.599821 c -0.475666,5.617946 -5.159904,8.029341 -9.583605,8.029341 A 10.551155,10.544452 0 0 1 4.406404,14.779518 c 0,-6.076024 4.706939,-10.754044 10.609532,-10.754044 4.553429,0 7.236622,2.900805 7.236622,2.900805 L 25.063316,4.015751 C 25.063316,4.015751 21.452573,0 14.868912,0 6.485285,0 0,7.071049 0,14.708214 c 0,7.483751 6.100426,14.781679 15.080799,14.781679 7.899312,0 13.681908,-5.408353 13.681908,-13.405283 0,-1.687544 -0.245401,-2.662042 -0.245401,-2.662042 z"
    fill="#4885ed" id="path1" style="stroke-width:1.08071" />
  <use xlink:href="#A" fill="#db3236" id="use1" transform="matrix(1.081061,0,0,1.0803742,-6.4798791,-15.149006)" />
  <use xlink:href="#A" x="19.181" fill="#f4c20d" id="use2"
    transform="matrix(1.081061,0,0,1.0803742,-6.4798791,-15.149006)" />
  <path
    d="m 80.683899,10.526085 c -5.098283,0 -9.104695,4.461946 -9.104695,9.47056 0,5.704376 4.645319,9.487846 9.016049,9.487846 2.702652,0 4.140463,-1.072812 5.189092,-2.303358 v 1.869048 c 0,3.270292 -1.98699,5.22901 -4.985853,5.22901 -2.897244,0 -4.35019,-2.153185 -4.864774,-3.374008 l -3.645337,1.512524 C 73.581329,35.151053 76.184524,38 80.828761,38 c 5.080987,0 8.931726,-3.190345 8.931726,-9.882182 V 11.095443 H 85.79948 v 1.605436 c -1.221599,-1.318057 -2.895081,-2.174794 -5.113418,-2.174794 z m 0.367562,3.716487 c 2.499412,0 5.065851,2.132659 5.065851,5.7746 0,3.702442 -2.562115,5.742189 -5.120986,5.742189 -2.717787,0 -5.246388,-2.203963 -5.246388,-5.707617 0,-3.6387 2.626978,-5.810252 5.301523,-5.810252 z"
    fill="#4885ed" id="path2" style="stroke-width:1.08071" />
  <path
    d="m 107.46394,10.503397 c -4.80856,0 -8.84632,3.824525 -8.84632,9.464078 0,5.970148 4.50046,9.510534 9.29712,9.510534 4.0129,0 6.48636,-2.19316 7.9458,-4.159441 l -3.27886,-2.180195 c -0.85079,1.318057 -2.27347,2.609104 -4.64639,2.609104 -2.66591,0 -3.89183,-1.458505 -4.65181,-2.873795 L 116,17.601456 115.35136,16.056521 c -1.22808,-3.025048 -4.09397,-5.553124 -7.88634,-5.553124 z m 0.1654,3.645183 c 1.73294,0 2.97941,0.920479 3.50912,2.024621 l -8.4928,3.546868 c -0.36757,-2.746311 2.23779,-5.571489 4.97288,-5.571489 z"
    fill="#db3236" id="path3" style="stroke-width:1.08071" />
  <path d="m 92.5453,28.916214 h 4.17722 V 0.98098 H 92.5453 Z" fill="#3cba54" id="path4"
    style="stroke-width:1.08071" />
  <defs id="defs4">
    <path id="A"
      d="m 42.634,23.755 c -5.138,0 -8.82,4.017 -8.82,8.7 0,4.754 3.57,8.845 8.88,8.845 4.806,0 8.743,-3.673 8.743,-8.743 0,-5.8 -4.58,-8.803 -8.803,-8.803 z m 0.05,3.446 c 2.526,0 4.92,2.043 4.92,5.334 0,3.22 -2.384,5.322 -4.932,5.322 -2.8,0 -5,-2.242 -5,-5.348 0,-3.04 2.18,-5.308 5.02,-5.308 z" />
  </defs>
</svg>