<svg viewBox="0 0 150 38" version="1.1" id="svg5" xmlns:xlink="http://www.w3.org/1999/xlink"
  xmlns="http://www.w3.org/2000/svg" xmlns:svg="http://www.w3.org/2000/svg">
  <defs id="defs1">
    <clipPath id="A">
      <path d="M 0,0 H 432 V 3924 H 0 Z" id="path1" />
    </clipPath>
    <path id="B"
      d="m 56.435,95 v 0.35 c -0.22,-0.263 -0.644,-0.44 -1.097,-0.44 -0.54,0 -1.214,0.373 -1.214,1.163 0,0.855 0.673,1.14 1.214,1.14 0.468,0 0.885,-0.154 1.097,-0.417 v 0.35 c 0,0.307 -0.263,0.52 -0.717,0.52 -0.35,0 -0.702,-0.14 -0.987,-0.38 l -0.417,0.782 c 0.454,0.388 1.06,0.548 1.602,0.548 0.848,0 1.645,-0.314 1.645,-1.41 V 95 Z m 0,0.907 v 0.314 c -0.117,0.168 -0.38,0.25 -0.63,0.25 -0.292,0 -0.563,-0.132 -0.563,-0.4 0,-0.268 0.27,-0.41 0.563,-0.41 0.25,0 0.512,0.087 0.63,0.256" />
  </defs>
  <g transform="matrix(0.15067714,0,0,0.1519769,-135.12402,45.960518)" fill="#00aeef" id="g5">
    <path
      d="m 1723.044,-262.904 h 38.783 v 167.98 h -38.783 z m 44.306,107.027 c 0,-35.27 26.452,-63.72 64.477,-63.72 36.027,0 62.204,26.452 62.204,67.75 v 8.817 h -86.624 c 2.755,10.815 12.847,19.908 30.448,19.908 8.576,0 22.698,-3.8 29.724,-10.333 l 16.877,25.42 c -12.1,10.85 -32.24,16.12 -50.872,16.12 -37.508,0 -66.234,-24.42 -66.234,-63.96 m 64.477,-32.48 c -16.877,0 -23.42,10.057 -24.937,18.875 h 50.115 c -1,-8.576 -7.302,-18.875 -25.178,-18.875"
      id="path5" />
    <g clip-path="url(#A)" transform="matrix(34.44305,0,0,-34.44305,-771.97629,3177.1304)" id="g4">
      <use xlink:href="#B" id="use2" />
      <path
        d="m 57.64,95.46 0.468,0.804 a 2.21,2.21 0 0 1 1.243,-0.475 c 0.336,0 0.475,0.095 0.475,0.25 0,0.438 -2.054,-0.015 -2.054,1.418 0,0.622 0.54,1.163 1.513,1.163 0.6,0 1.097,-0.2 1.477,-0.468 l -0.43,-0.797 c -0.212,0.205 -0.614,0.387 -1.038,0.387 -0.264,0 -0.44,-0.102 -0.44,-0.24 0,-0.387 2.047,0.015 2.047,-1.433 0,-0.673 -0.592,-1.155 -1.6,-1.155 -0.636,0 -1.287,0.212 -1.66,0.548 M 63.441,95 v 2.055 c 0,0.43 -0.227,0.57 -0.585,0.57 -0.33,0 -0.548,-0.183 -0.68,-0.344 V 95 H 61.05 v 4.877 h 1.126 V 98.1 c 0.212,0.25 0.63,0.52 1.22,0.52 0.804,0 1.17,-0.453 1.17,-1.104 V 95 Z"
        id="path3" />
      <use xlink:href="#B" x="10.601" id="use3" />
      <path
        d="m 68.55,95 v 4.877 h 1.126 v -1.762 a 1.3,1.3 0 0 0 1.046,0.504 c 0.885,0 1.557,-0.694 1.557,-1.85 0,-1.2 -0.687,-1.857 -1.557,-1.857 a 1.35,1.35 0 0 0 -1.046,0.497 V 95 Z m 1.8,0.907 c 0.446,0 0.782,0.33 0.782,0.862 0,0.527 -0.336,0.856 -0.782,0.856 -0.24,0 -0.534,-0.132 -0.673,-0.322 V 96.22 c 0.14,-0.2 0.432,-0.314 0.673,-0.314"
        id="path4" />
    </g>
    <path
      d="m 1042.38,-94.93 v -111.08 l -42.296,111.08 h -19.15 l -42.572,-111.08 v 111.08 h -43.33 v -167.98 h 60.206 l 35.27,92.686 34.994,-92.686 h 60.206 v 167.98 z"
      id="path2" />
  </g>
</svg>