<?xml version="1.0" encoding="UTF-8" standalone="no"?>
<svg
   viewBox="0 0 120.2 38.063332"
   fill="none"
   version="1.1"
   id="svg2"
   width="120.2"
   height="38.063332"
   xmlns="http://www.w3.org/2000/svg"
   xmlns:svg="http://www.w3.org/2000/svg">
  <defs
     id="defs2" />
  <path
     d="M 19.484791,0 C 8.704945,0 1.6659287e-8,8.527175 1.6659287e-8,19.031666 1.6659287e-8,29.559198 8.7285351,38.063333 19.485866,38.063333 c 10.778776,0 19.485865,-8.525082 19.485865,-19.031667 C 38.971731,8.525079 30.243195,0 19.485866,0 Z m 8.93978,27.466678 c -0.349569,0.568687 -1.093748,0.727879 -1.676007,0.387504 C 22.16233,25.125947 16.411576,24.513271 9.6131844,26.010921 8.9612247,26.14707 8.3092656,25.759568 8.1698663,25.123852 8.0304668,24.488137 8.4272191,23.850326 9.0781061,23.714176 c 7.4267599,-1.659982 13.8048119,-0.955143 18.9261229,2.11556 0.582261,0.341423 0.767769,1.068254 0.418197,1.636942 z m 2.374076,-5.18417 C 30.356861,22.987345 29.426101,23.19157 28.70337,22.783121 23.465176,19.645389 15.481891,18.736326 9.2882773,20.55445 8.4733274,20.781717 7.6369327,20.350226 7.4010259,19.576266 7.1683365,18.780312 7.6101251,17.963413 8.4250741,17.733006 15.502264,15.641533 24.301572,16.641712 30.332196,20.246543 c 0.696997,0.408448 0.908241,1.319606 0.46538,2.023397 z m 0.209099,-5.411435 C 24.721914,13.232727 14.362409,12.891305 8.3564474,14.665443 7.3913753,14.960784 6.3780502,14.414089 6.0745889,13.481984 5.7711277,12.549883 6.3319414,11.549705 7.2862899,11.253316 14.176901,9.206877 25.631226,9.616374 32.847817,13.800367 c 0.861058,0.500613 1.140928,1.591906 0.628369,2.432895 -0.465379,0.864028 -1.60631,1.137376 -2.466295,0.636762 z"
     fill="#1ed760"
     id="path1"
     style="stroke-width:1.05972" />
  <g
     transform="matrix(0.22920449,0,0,0.22386191,-4.0897286,0.866756)"
     fill="#1ed760"
     id="g2">
    <path
       d="m 232.1,78.6 c -14.5,-3.4 -17,-5.9 -17,-11 0,-4.8 4.5,-8 11.2,-8 6.5,0 13,2.5 19.8,7.5 0.2,0.2 0.5,0.2 0.7,0.2 0.3,0 0.5,-0.2 0.6,-0.4 l 7.1,-10 a 0.95,0.95 0 0 0 -0.2,-1.3 C 246.2,49.1 237.1,46 226.5,46 210.9,46 200,55.4 200,68.8 c 0,14.4 9.4,19.5 25.7,23.4 13.8,3.2 16.2,5.9 16.2,10.6 0,5.3 -4.7,8.6 -12.3,8.6 -8.4,0 -15.3,-2.8 -23,-9.5 -0.2,-0.2 -0.5,-0.2 -0.7,-0.2 -0.3,0 -0.5,0.1 -0.6,0.3 l -7.9,9.4 c -0.3,0.4 -0.3,1 0.1,1.3 9,8 20,12.2 31.9,12.2 16.8,0 27.7,-9.2 27.7,-23.4 -0.2,-12 -7.4,-18.6 -25,-22.9 z M 295,64.3 c -7.3,0 -13.3,2.9 -18.2,8.8 v -6.6 c 0,-0.5 -0.4,-0.9 -0.9,-0.9 H 263 c -0.5,0 -0.9,0.4 -0.9,0.9 v 73.6 c 0,0.5 0.4,0.9 0.9,0.9 h 12.9 c 0.5,0 0.9,-0.4 0.9,-0.9 v -23.2 c 4.9,5.5 10.9,8.2 18.2,8.2 13.5,0 27.3,-10.4 27.3,-30.4 C 322.2,74.8 308.5,64.3 295,64.3 Z m 12.2,30.4 c 0,10.2 -6.3,17.2 -15.2,17.2 -8.9,0 -15.5,-7.4 -15.5,-17.2 0,-9.8 6.7,-17.2 15.5,-17.2 8.8,0 15.2,7.2 15.2,17.2 z m 50.2,-30.4 c -17.4,0 -31.1,13.4 -31.1,30.6 0,17 13.6,30.3 30.9,30.3 17.5,0 31.2,-13.4 31.2,-30.5 0,-17 -13.6,-30.4 -31,-30.4 z m 0,47.7 c -9.3,0 -16.3,-7.5 -16.3,-17.3 0,-9.9 6.8,-17.1 16.1,-17.1 9.3,0 16.4,7.5 16.4,17.4 -0.1,9.8 -6.9,17 -16.2,17 z M 425.6,65.5 H 411.4 V 50.9 c 0,-0.5 -0.4,-0.9 -0.9,-0.9 h -12.9 c -0.5,0 -0.9,0.4 -0.9,0.9 v 14.6 h -6.2 c -0.5,0 -0.9,0.4 -0.9,0.9 v 11.1 c 0,0.5 0.4,0.9 0.9,0.9 h 6.2 v 28.8 c 0,11.6 5.8,17.5 17.2,17.5 4.6,0 8.5,-1 12.1,-3 0.3,-0.2 0.5,-0.5 0.5,-0.8 v -10.6 c 0,-0.3 -0.2,-0.6 -0.4,-0.8 -0.3,-0.2 -0.6,-0.2 -0.9,0 -2.5,1.3 -4.9,1.8 -7.6,1.8 -4.2,0 -6,-1.9 -6,-6.1 V 78.5 h 14.2 c 0.5,0 0.9,-0.4 0.9,-0.9 V 66.5 c -0.1,-0.6 -0.5,-1 -1.1,-1 z m 49.7,0.1 v -1.8 c 0,-5.3 2,-7.6 6.5,-7.6 2.7,0 4.9,0.5 7.3,1.3 0.3,0.1 0.6,0 0.9,-0.1 0.2,-0.2 0.4,-0.5 0.4,-0.8 V 45.7 c 0,-0.4 -0.3,-0.8 -0.7,-0.9 -2.6,-0.8 -5.8,-1.5 -10.8,-1.5 -12,0 -18.3,6.7 -18.3,19.5 v 2.7 h -6.2 c -0.5,0 -1,0.4 -1,0.9 v 11.2 c 0,0.5 0.4,0.9 1,0.9 h 6.2 v 44.4 c 0,0.5 0.4,0.9 0.9,0.9 h 12.9 c 0.5,0 0.9,-0.4 0.9,-0.9 V 78.5 h 12.1 l 18.5,44.4 c -2.1,4.7 -4.2,5.6 -7,5.6 -2.3,0 -4.7,-0.7 -7.1,-2 -0.2,-0.1 -0.5,-0.1 -0.8,-0.1 -0.2,0.1 -0.5,0.3 -0.6,0.5 l -4.4,9.6 c -0.2,0.5 0,1 0.4,1.2 4.6,2.5 8.7,3.5 13.8,3.5 9.6,0 14.8,-4.5 19.5,-16.4 l 22.5,-58 c 0.1,-0.3 0.1,-0.6 -0.1,-0.9 -0.2,-0.3 -0.5,-0.4 -0.8,-0.4 h -13.5 c -0.4,0 -0.8,0.3 -0.9,0.6 L 513.1,105.5 498,66 c -0.1,-0.4 -0.5,-0.6 -0.9,-0.6 h -21.8 z m -28.8,-0.1 h -12.9 c -0.5,0 -0.9,0.4 -0.9,0.9 v 56.5 c 0,0.5 0.4,0.9 0.9,0.9 h 12.9 c 0.5,0 0.9,-0.4 0.9,-0.9 V 66.5 c 0.1,-0.6 -0.4,-1 -0.9,-1 z"
       id="path2" />
    <circle
       cx="440.10001"
       cy="49.099998"
       r="9.3000002"
       id="circle2" />
  </g>
</svg>
